<svg width="20" height="20" viewBox="0 0 20 20" fill="none" xmlns="http://www.w3.org/2000/svg">
<path d="M16.6868 6.42773L12.3171 2.05803C12.3108 2.05177 12.304 2.04628 12.2976 2.04033C12.2891 2.03259 12.2809 2.02457 12.2721 2.01729C12.2662 2.01248 12.2599 2.00829 12.2539 2.00367C12.2437 1.99585 12.2336 1.98791 12.2229 1.98071C12.218 1.97746 12.2129 1.97475 12.208 1.97166C12.1956 1.96384 12.1832 1.95606 12.1702 1.94908C12.1667 1.94721 12.1631 1.94576 12.1595 1.94397C12.1449 1.93642 12.1301 1.92917 12.1148 1.9228C12.1124 1.92181 12.1099 1.92108 12.1075 1.92013C12.0911 1.91353 12.0744 1.90735 12.0573 1.90216C12.0548 1.9014 12.0523 1.90094 12.0498 1.90021C12.0329 1.89529 12.0157 1.89075 11.9982 1.88724C11.9926 1.88614 11.9869 1.88564 11.9812 1.88469C11.9667 1.88217 11.9523 1.87961 11.9376 1.87816C11.9168 1.87606 11.896 1.875 11.8751 1.875H4.37451C4.04311 1.87538 3.72538 2.0072 3.49105 2.24154C3.25671 2.47587 3.12489 2.7936 3.12451 3.125V16.875C3.12489 17.2064 3.25671 17.5241 3.49105 17.7585C3.72538 17.9928 4.04311 18.1246 4.37451 18.125H15.6251C15.9565 18.1246 16.2742 17.9928 16.5086 17.7585C16.7429 17.5241 16.8747 17.2064 16.8751 16.875V6.88709C16.8752 6.88301 16.8757 6.87908 16.8757 6.875C16.8758 6.79159 16.8591 6.70902 16.8266 6.63219C16.7942 6.55536 16.7466 6.48583 16.6868 6.42773ZM12.5001 13.75H7.50012C7.33436 13.75 7.17539 13.6842 7.05818 13.5669C6.94097 13.4497 6.87512 13.2908 6.87512 13.125C6.87512 12.9592 6.94097 12.8003 7.05818 12.6831C7.17539 12.5658 7.33436 12.5 7.50012 12.5H12.5001C12.6659 12.5 12.8249 12.5658 12.9421 12.6831C13.0593 12.8003 13.1251 12.9592 13.1251 13.125C13.1251 13.2908 13.0593 13.4497 12.9421 13.5669C12.8249 13.6842 12.6659 13.75 12.5001 13.75ZM12.5001 11.25H7.50012C7.33436 11.25 7.17539 11.1842 7.05818 11.0669C6.94097 10.9497 6.87512 10.7908 6.87512 10.625C6.87512 10.4592 6.94097 10.3003 7.05818 10.1831C7.17539 10.0658 7.33436 10 7.50012 10H12.5001C12.6659 10 12.8249 10.0658 12.9421 10.1831C13.0593 10.3003 13.1251 10.4592 13.1251 10.625C13.1251 10.7908 13.0593 10.9497 12.9421 11.0669C12.8249 11.1842 12.6659 11.25 12.5001 11.25ZM11.8751 6.875V3.38387L15.3662 6.875H11.8751Z" fill="#F2AC43"/>
</svg>
