<svg width="24" height="24" viewBox="0 0 24 24" fill="none" xmlns="http://www.w3.org/2000/svg">
<path d="M4.5 3.75L19.5 20.25" stroke="white" stroke-width="1.5" stroke-linecap="round" stroke-linejoin="round"/>
<path d="M14.5226 14.7748C13.7866 15.4437 12.8151 15.7929 11.8217 15.7456C10.8284 15.6982 9.89446 15.2582 9.22548 14.5223C8.5565 13.7865 8.20723 12.815 8.25448 11.8216C8.30174 10.8282 8.74167 9.89427 9.47749 9.22522" stroke="white" stroke-width="1.5" stroke-linecap="round" stroke-linejoin="round"/>
<path d="M6.93698 6.43063C3.11486 8.36615 1.5 12 1.5 12C1.5 12 4.5 18.7493 12 18.7493C13.7572 18.7633 15.4926 18.3585 17.0623 17.5685" stroke="white" stroke-width="1.5" stroke-linecap="round" stroke-linejoin="round"/>
<path d="M19.5571 15.8531C21.6011 14.0224 22.5 12 22.5 12C22.5 12 19.5 5.24928 12 5.24928C11.3504 5.24822 10.7019 5.30103 10.061 5.40717" stroke="white" stroke-width="1.5" stroke-linecap="round" stroke-linejoin="round"/>
<path d="M12.7058 8.31635C13.5028 8.46939 14.2288 8.87674 14.7747 9.47728C15.3206 10.0778 15.6571 10.8392 15.7337 11.6472" stroke="white" stroke-width="1.5" stroke-linecap="round" stroke-linejoin="round"/>
</svg>
