<svg width="20" height="20" viewBox="0 0 20 20" fill="none" xmlns="http://www.w3.org/2000/svg">
<path d="M18.1252 10C18.1228 7.84645 17.2664 5.78175 15.7439 4.25864C14.2214 2.73554 12.157 1.87836 10.0035 1.87505L10.0002 1.87219L9.99692 1.87505C7.84292 1.87638 5.77759 2.73298 4.25495 4.25655C2.7323 5.78013 1.87696 7.84597 1.87695 9.99998C1.87694 12.154 2.73226 14.2198 4.25489 15.7434C5.77752 17.267 7.84284 18.1236 9.99684 18.125L10.0002 18.1279L10.0036 18.125C12.1571 18.1217 14.2214 17.2645 15.7439 15.7414C17.2664 14.2183 18.1228 12.1536 18.1252 10ZM16.8465 9.37502H13.733C13.6086 7.05962 12.7946 4.92052 11.4279 3.27451C12.8631 3.58167 14.1627 4.33909 15.1374 5.43641C16.112 6.53374 16.7108 7.91362 16.8465 9.37502ZM7.52042 10.625H12.48C12.3386 12.8716 11.4414 14.9768 10.0002 16.4408C8.55904 14.9768 7.66179 12.8716 7.52042 10.625ZM7.52042 9.37502C7.66179 7.12839 8.55904 5.02317 10.0002 3.55928C11.4414 5.02317 12.3386 7.12839 12.48 9.37502L7.52042 9.37502ZM11.4279 16.7255C12.7945 15.0795 13.6086 12.9403 13.733 10.625H16.8465C16.7108 12.0864 16.112 13.4663 15.1373 14.5636C14.1627 15.661 12.8631 16.4184 11.4279 16.7255Z" fill="#F2AC43"/>
</svg>
