<svg width="16" height="16" viewBox="0 0 16 16" fill="none" xmlns="http://www.w3.org/2000/svg">
<path d="M5.87867 11.5355C5.17157 13.6569 2.34314 13.6569 2.34314 13.6569C2.34314 13.6569 2.34314 10.8284 4.46446 10.1213" stroke="white" stroke-linecap="round" stroke-linejoin="round"/>
<path d="M12.2427 6.58579L8.00006 10.8284L5.17163 8L9.41427 3.75736C11.0208 2.15085 12.6273 2.16652 13.3124 2.26874C13.4179 2.28447 13.5156 2.33367 13.591 2.40908C13.6664 2.4845 13.7156 2.58215 13.7313 2.68764C13.8335 3.37277 13.8492 4.97928 12.2427 6.58579Z" stroke="white" stroke-linecap="round" stroke-linejoin="round"/>
<path d="M11.5355 7.29289V11.3284C11.5355 11.3941 11.5226 11.4591 11.4975 11.5198C11.4723 11.5804 11.4355 11.6356 11.3891 11.682L9.36773 13.7033C9.30373 13.7673 9.22357 13.8128 9.13579 13.8348C9.04801 13.8568 8.9559 13.8546 8.86928 13.8283C8.78267 13.8021 8.70479 13.7529 8.64396 13.6859C8.58313 13.6188 8.54163 13.5366 8.52388 13.4478L8 10.8284" stroke="white" stroke-linecap="round" stroke-linejoin="round"/>
<path d="M8.70716 4.46446H4.67163C4.60597 4.46446 4.54095 4.4774 4.48029 4.50252C4.41962 4.52765 4.3645 4.56448 4.31808 4.61091L2.29672 6.63227C2.23272 6.69626 2.1873 6.77642 2.16528 6.86421C2.14327 6.95199 2.1455 7.0441 2.17172 7.13071C2.19795 7.21733 2.24719 7.29521 2.3142 7.35603C2.38121 7.41686 2.46347 7.45836 2.55221 7.47611L5.17163 8" stroke="white" stroke-linecap="round" stroke-linejoin="round"/>
</svg>
