<svg width="16" height="16" viewBox="0 0 16 16" fill="none" xmlns="http://www.w3.org/2000/svg">
<path d="M14.4535 1.98328C14.3157 1.86431 14.148 1.78531 13.9685 1.75482C13.7891 1.72433 13.6047 1.74352 13.4353 1.81031L1.90052 6.34186C1.69946 6.42085 1.52939 6.56281 1.41575 6.74652C1.3021 6.93022 1.251 7.14579 1.27009 7.36096C1.28917 7.57612 1.37742 7.77933 1.52162 7.94016C1.66582 8.101 1.85823 8.21081 2.07004 8.25318L4.99998 8.83918V12.4988C4.99981 12.6966 5.05836 12.8901 5.16821 13.0547C5.27806 13.2192 5.43428 13.3475 5.61707 13.4232C5.79986 13.4989 6.00102 13.5187 6.19505 13.48C6.38909 13.4413 6.56728 13.3459 6.70707 13.2059L8.32853 11.5844L10.7895 13.7501C10.9707 13.911 11.2045 14 11.4468 14.0003C11.5522 14.0002 11.6569 13.9836 11.7571 13.9511C11.9223 13.8987 12.071 13.8039 12.1881 13.6761C12.3053 13.5483 12.3869 13.392 12.4248 13.2228L14.7757 2.96448C14.8166 2.7871 14.8082 2.60189 14.7514 2.42894C14.6946 2.25598 14.5916 2.10186 14.4535 1.98328ZM11.4501 12.9994L6.3006 8.46778L13.7159 3.11234L11.4501 12.9994Z" fill="white"/>
</svg>
