<svg width="20" height="20" viewBox="0 0 20 20" fill="none" xmlns="http://www.w3.org/2000/svg">
<path d="M19.9986 10.0004C19.9986 15.051 16.2549 19.2264 11.3915 19.904C10.9368 19.9671 10.4716 20 9.9993 20C9.45418 20 8.91886 19.9566 8.39756 19.8725C3.63649 19.1059 0 14.9774 0 10.0004C0 4.47746 4.4773 0 10 0C15.5227 0 20 4.47746 20 10.0004H19.9986Z" fill="#F2AC43"/>
<path d="M4.05559 4.41022L8.66741 10.5764L4.02686 15.5898H5.07156L9.13476 11.2007L12.4174 15.5898H15.9719L11.1008 9.07686L15.4205 4.41022H14.3758L10.6342 8.45254L7.6108 4.41022H4.05628H4.05559ZM5.59145 5.17958H7.22403L14.4347 14.8205H12.8021L5.59145 5.17958Z" fill="#1E1E1E"/>
</svg>
