<svg width="32" height="32" viewBox="0 0 32 32" fill="none" xmlns="http://www.w3.org/2000/svg">
<path d="M18 27H14C13.7348 27 13.4804 27.1054 13.2929 27.2929C13.1054 27.4804 13 27.7348 13 28C13 28.2652 13.1054 28.5196 13.2929 28.7071C13.4804 28.8946 13.7348 29 14 29H18C18.2652 29 18.5196 28.8946 18.7071 28.7071C18.8946 28.5196 19 28.2652 19 28C19 27.7348 18.8946 27.4804 18.7071 27.2929C18.5196 27.1054 18.2652 27 18 27Z" fill="url(#paint0_linear_1873_3817)"/>
<path d="M27.4536 17.9822L23.674 13.4467C23.5531 11.9527 23.2172 10.4841 22.6765 9.08624C21.2243 5.30975 18.6569 2.83636 17.2558 1.69805C16.9005 1.41206 16.4585 1.25544 16.0024 1.25392C15.5463 1.2524 15.1032 1.40607 14.746 1.68969C13.3266 2.82684 10.7263 5.2984 9.25947 9.07544C8.70066 10.5049 8.35948 12.0102 8.24732 13.5409L4.54633 17.9822C4.35137 18.2176 4.21259 18.4943 4.14051 18.7913C4.06843 19.0883 4.06494 19.3978 4.13032 19.6964L5.67573 26.6505C5.74896 26.9823 5.90561 27.29 6.13086 27.5444C6.3561 27.7988 6.64251 27.9916 6.96301 28.1045C7.28351 28.2174 7.62751 28.2467 7.96248 28.1896C8.29746 28.1326 8.61235 27.991 8.87739 27.7784L12.3507 24.9998H19.6492L23.1224 27.7784C23.4754 28.0625 23.9148 28.2176 24.368 28.218C24.5957 28.2178 24.8217 28.1789 25.0363 28.1031C25.3572 27.9912 25.6441 27.799 25.8696 27.5447C26.095 27.2904 26.2515 26.9826 26.3242 26.6506L27.8696 19.6965C27.935 19.3979 27.9315 19.0884 27.8594 18.7913C27.7873 18.4943 27.6485 18.2176 27.4536 17.9822ZM7.62812 26.2167L6.08271 19.2625L8.32352 16.5735C8.60761 18.9099 9.40512 21.3009 10.7161 23.7463L7.62812 26.2167ZM15.9999 13.4998C15.7033 13.4998 15.4133 13.4118 15.1666 13.247C14.9199 13.0822 14.7277 12.8479 14.6141 12.5738C14.5006 12.2997 14.4709 11.9981 14.5288 11.7072C14.5866 11.4162 14.7295 11.1489 14.9393 10.9392C15.1491 10.7294 15.4163 10.5865 15.7073 10.5286C15.9983 10.4708 16.2999 10.5005 16.574 10.614C16.8481 10.7275 17.0823 10.9198 17.2471 11.1665C17.412 11.4131 17.4999 11.7031 17.4999 11.9998C17.4999 12.3976 17.3419 12.7792 17.0606 13.0605C16.7793 13.3418 16.3978 13.4998 15.9999 13.4998ZM24.3718 26.2167L21.2781 23.7417C22.5723 21.279 23.3532 18.8675 23.621 16.5071L25.9172 19.2625L24.3718 26.2167Z" fill="url(#paint1_linear_1873_3817)"/>
<defs>
<linearGradient id="paint0_linear_1873_3817" x1="12.98" y1="27.1562" x2="18.5391" y2="29.8365" gradientUnits="userSpaceOnUse">
<stop stop-color="#EF9A24"/>
<stop offset="1" stop-color="#F2DD42"/>
</linearGradient>
<linearGradient id="paint1_linear_1873_3817" x1="4.0043" y1="3.36048" x2="30.6798" y2="7.14961" gradientUnits="userSpaceOnUse">
<stop stop-color="#EF9A24"/>
<stop offset="1" stop-color="#F2DD42"/>
</linearGradient>
</defs>
</svg>
