<svg width="32" height="32" viewBox="0 0 32 32" fill="none" xmlns="http://www.w3.org/2000/svg">
<path d="M20.0002 24H12.0002C11.735 24 11.4807 24.1054 11.2931 24.2929C11.1056 24.4804 11.0002 24.7348 11.0002 25C11.0002 25.2652 11.1056 25.5196 11.2931 25.7071C11.4807 25.8946 11.735 26 12.0002 26H20.0002C20.2655 26 20.5198 25.8946 20.7074 25.7071C20.8949 25.5196 21.0002 25.2652 21.0002 25C21.0002 24.7348 20.8949 24.4804 20.7074 24.2929C20.5198 24.1054 20.2655 24 20.0002 24Z" fill="url(#paint0_linear_17_5791)"/>
<path d="M19.0002 28H13.0002C12.735 28 12.4807 28.1054 12.2931 28.2929C12.1056 28.4804 12.0002 28.7348 12.0002 29C12.0002 29.2652 12.1056 29.5196 12.2931 29.7071C12.4807 29.8946 12.735 30 13.0002 30H19.0002C19.2655 30 19.5198 29.8946 19.7074 29.7071C19.8949 29.5196 20.0002 29.2652 20.0002 29C20.0002 28.7348 19.8949 28.4804 19.7074 28.2929C19.5198 28.1054 19.2655 28 19.0002 28Z" fill="url(#paint1_linear_17_5791)"/>
<path d="M16.0002 2C13.6917 2.00012 11.4416 2.72653 9.56878 4.07637C7.69594 5.4262 6.29523 7.33103 5.56502 9.52109C4.83482 11.7112 4.81213 14.0754 5.50016 16.2791C6.1882 18.4828 7.55209 20.4142 9.39868 21.7997C9.57192 21.9298 9.78273 22.0001 9.99939 22.0001H22.0011C22.2178 22.0001 22.4286 21.9298 22.6018 21.7997C24.4484 20.4142 25.8123 18.4828 26.5003 16.2791C27.1884 14.0754 27.1657 11.7112 26.4355 9.52109C25.7053 7.33103 24.3046 5.4262 22.4317 4.07637C20.5589 2.72653 18.3088 2.00012 16.0002 2Z" fill="url(#paint2_linear_17_5791)"/>
<defs>
<linearGradient id="paint0_linear_17_5791" x1="10.9669" y1="24.1562" x2="17.9055" y2="29.7318" gradientUnits="userSpaceOnUse">
<stop stop-color="#EF9A24"/>
<stop offset="1" stop-color="#F2DD42"/>
</linearGradient>
<linearGradient id="paint1_linear_17_5791" x1="11.9736" y1="28.1562" x2="18.4374" y2="32.3115" gradientUnits="userSpaceOnUse">
<stop stop-color="#EF9A24"/>
<stop offset="1" stop-color="#F2DD42"/>
</linearGradient>
<linearGradient id="paint2_linear_17_5791" x1="4.92691" y1="3.56251" x2="29.2869" y2="7.8689" gradientUnits="userSpaceOnUse">
<stop stop-color="#EF9A24"/>
<stop offset="1" stop-color="#F2DD42"/>
</linearGradient>
</defs>
</svg>
